<svg xmlns="http://www.w3.org/2000/svg" width="40" height="40" viewBox="0 0 40 40"><path fill="#ffffff" d="m25.523 5.682.145.62c.374.862.73.811 1.632.94 1.707.302 3.674.759 3.49 2.927-1.086 1.9-3.681 2.977-5.523 4.053l-.895.526-1.639.962-.688.404-.603.322c-.42.291-.42.291-.42.905.358.24.729.402 1.12.58.313.238.313.238.313 1.056-.98.167-1.53-.097-2.314-.665l-.535-.373c-.484-.449-.877-.912-.39-1.5l.39-.269.46-.318c1.111-.714 2.239-1.4 3.373-2.078q1.106-.662 2.207-1.331.68-.411 1.363-.813l.613-.369.539-.318c.723-.591.93-1.102.634-1.988-3.192-1.796-6.127.809-8.784 2.54-2.54 1.648-2.54 1.648-3.897 1.55 0-1.098.267-1.077 1.18-1.615l.371-.222q.59-.35 1.184-.694l.776-.46c1.928-1.143 1.928-1.143 2.852-1.659l.56-.318.487-.268c.717-.567.673-1.22.158-1.923a4.7 4.7 0 0 0-2.084-.498l-.533-.025c-2.002.349-3.808 1.785-5.514 2.837q-1.268.781-2.543 1.552-.382.232-.762.466-.578.355-1.16.701l-.69.42c-.667.294-.98.384-1.646.07-.087-.905.702-1.188 1.393-1.58l.368-.212q.595-.34 1.192-.675l2.04-1.168a79 79 0 0 0 3.655-2.233c2.41-1.517 5.946-2.17 8.125.14M35.34 16.114c.128 1.083-.122 1.963-.459 2.98-.478 1.541-.478 1.541.255 2.133 1.662 3.324-2.446 6.483-4.843 7.865q-.571.331-1.136.671a58 58 0 0 1-3.343 1.875C23.07 33.06 23.07 33.06 23.235 35c.042.602.008.892-.371 1.364-.622.02-.784-.049-.92-.667.075-3.663 2.598-4.731 5.483-6.378 1.472-.842 2.94-1.69 4.369-2.602l.58-.369c1.1-.896 1.555-1.943 1.648-3.331l.052-.566c-.305-.74-1.149-.358-1.803-.201-.689.33-.689.33-1.363.752l-.368.227q-.575.358-1.146.721l-.769.48q-.71.441-1.42.888c-1.987 1.227-1.987 1.227-2.707 1.227.018-.91.343-1.226 1.078-1.706l.561-.369c1.28-.795 2.578-1.56 3.88-2.319 5.12-3.022 5.12-3.022 3.89-5.628-1.217.05-1.981.317-3.03.965l-.384.233q-.603.37-1.2.745l-.788.482a589 589 0 0 0-2.792 1.723q-.621.385-1.246.767l-.38.238c-1.315.8-1.315.8-2.044.779-.029-.893.349-1.231 1.057-1.694l.562-.37c1.179-.73 2.371-1.435 3.572-2.13l.767-.446 1.5-.872q.72-.417 1.436-.84l.664-.392.587-.348c1.252-.692 2.6-.742 3.15.75M12.131 17.094c.384.576.506.549 1.17.464 2.56-.12 4.454 2.679 4.713 5.03.027.621.036 1.24.038 1.863l.01.688q.014 1.08.02 2.16l.025 2.168q.009.673.013 1.346l.007.617.004.54c.067 1.201.207 1.617 1.255 2.259 1.228.754 1.228.754 1.228 1.52-1.202.401-3.214-1.263-3.603-2.418-.09-.51-.108-.99-.111-1.507l-.007-.641-.004-.69-.018-1.452a608 608 0 0 1-.021-2.285q-.01-1.104-.025-2.208l-.002-.685c-.04-2.535-.646-4.681-3.573-4.681-.052.357-.052.357-.052.864l-.005.57.001.624-.013 1.286q-.007 1.022-.009 2.045-.004.981-.016 1.962l.003.623-.008.571-.002.507c-.104.357-.104.357-.922.357-.231-.463-.232-.72-.237-1.234l-.006-.515-.004-.56-.018-1.173a398 398 0 0 1-.021-1.848 236 236 0 0 0-.025-1.785l-.002-.55c-.042-2.143-.518-4.457-2.96-4.812-.702.466-.691.947-.695 1.75l-.008.705v.761l-.009.78q-.01 1.026-.014 2.052-.007 1.449-.021 2.897-.008.771-.009 1.542l-.006.702-.003.62c-.053.463-.053.463-.462.668-.713-.48-.69-.978-.693-1.794l-.006-.734.004-.794-.002-.816q-.001-.855.004-1.71.004-1.092-.003-2.186-.002-1.044.001-2.09l-.004-.791.006-.738.002-.649c.48-3.603 4.097-1.017 5.095.805"/><path fill="#ffffff" d="M22.25 6.5c0 .907-.422.938-1.18 1.384l-.372.22q-.59.351-1.184.697c-5.165 3.042-5.165 3.042-5.241 4.04 1.337 1.895 3.703 1.25 5.369.243l.414-.24c.825-.483 1.64-.982 2.454-1.482l.552-.336q.534-.327 1.064-.66c2.35-1.445 2.35-1.445 2.843-.649-.025.795-.745 1.013-1.376 1.366l-.43.252q-.688.399-1.379.79l-.912.53q-1.038.602-2.081 1.195l-.784.45c-2.243 1.297-5.285 1.284-7.166-.64-1.328-2.55 2.864-4.19 4.666-5.229a54 54 0 0 0 2.677-1.67c.75-.455 1.235-.53 2.066-.261M32.886 18.364c-.216 1.069-.934 1.433-1.823 1.93l-.427.247q-.675.392-1.355.776c-6.94 3.979-6.94 3.979-5.6 6.66 1.114.163 1.843-.267 2.758-.836l.43-.258q.678-.41 1.351-.823l.914-.552c2.065-1.247 2.065-1.247 2.934-1.826h.614c-.02.9-.332 1.22-1.061 1.695l-.561.369a154 154 0 0 1-3.492 2.103l-.76.449c-3.53 2.08-3.53 2.08-4.558.497-1.088-4.206 2.908-6.575 5.983-8.347l.91-.532 1.28-.746c1.918-1.11 1.918-1.11 2.463-.806M9.97 17.775c.696.3.647.73.656 1.42l.009.52.006.562.02 1.18q.016.929.027 1.859l.03 1.794.005.556c.04 2.06.506 4.265 2.872 4.65 1.05-.198.71-2.166.714-3.053l.014-1.14q.012-.896.016-1.793.006-.867.02-1.733v-.55c.01-.498.01-.498.118-1.229 1.062.048 1.048.78 1.056 1.676l.006.521.006 1.142.004 1.216q.004.927.015 1.854l.003 1.182.008.558c-.005 1.248-.015 2.476-1.366 2.91-2.773-.048-4.646-3.133-4.677-5.678l-.008-.572-.005-.613-.005-.631-.006-1.317q-.007-1.015-.022-2.03l-.005-1.277-.01-.619.001-.562-.004-.5c.1-.328.1-.328.502-.303"/></svg>